<svg xmlns="http://www.w3.org/2000/svg" viewBox="0 0 940 364"><title>karagiannis-logo</title><path d="M400.177,357.039c.227-.828.5-1.645.723-2.452.64-2.285,1.3-4.56,1.918-6.836a.581.581,0,0,1,.289-.382c.97-.59,1.9-1.148,2.827-1.748a4.057,4.057,0,0,0,1.918-4.519,8.485,8.485,0,0,1,.557-4.581,15.916,15.916,0,0,1,1.569-3.4h0c-.558-.683-1.135-1.293-1.63-1.976a19.262,19.262,0,0,1-3.817-11.78,10.774,10.774,0,0,1,2.393-6.856,5.625,5.625,0,0,1,4.849-2.224,7.3,7.3,0,0,1,3.838,1.428,6.984,6.984,0,0,1,.887.662,1.876,1.876,0,1,1-2.435,2.854,5.184,5.184,0,0,0-2.043-1.107,1.842,1.842,0,0,0-1.981.559,6.328,6.328,0,0,0-1.547,3.092,11.47,11.47,0,0,0,.185,5.3,16.136,16.136,0,0,0,3.364,6.65c.247.289.516.506.764.765a.267.267,0,0,0,.351.062,9.158,9.158,0,0,1,4.168-.858q3.342.046,6.685.248c2.641.155,5.3.393,7.986.631a66.548,66.548,0,0,1,7.263.982,9.387,9.387,0,0,1,1.609.507,3.935,3.935,0,0,0,2.187.124,13.918,13.918,0,0,0,5.592-2.348,3.891,3.891,0,0,0,.991-.94,3.682,3.682,0,0,1,2.269-1.407,2.278,2.278,0,0,0,1.238-.765c.516-.569,1.032-1.128,1.548-1.717.288-.342.516-.714.805-1.117a4.942,4.942,0,0,1,.8,3.65c.1.052.207.073.31.124a4.762,4.762,0,0,1,3,2.669.8.8,0,0,0,.186.238c.619.651,1.258,1.313,1.857,1.986a.733.733,0,0,1,.186.476,1.65,1.65,0,0,1-.785,1.52.379.379,0,0,0-.165.28,1.567,1.567,0,0,1-2.083,1.293,4.12,4.12,0,0,0-4.8,2.12,11.693,11.693,0,0,0-.7,1.841.377.377,0,0,0,0,.3,7.483,7.483,0,0,1,0,1.53,25.758,25.758,0,0,0-.124,3.083,24.3,24.3,0,0,0,.207,3.236,11.122,11.122,0,0,0,3.631,6.651c1.269,1.168,2.507,2.4,3.724,3.62.248.237.454.424.826.3a3.5,3.5,0,0,1,.557-.052v2.482c-.929,0-1.816.02-2.7,0a.825.825,0,0,1-.494-.156c-2.239-1.613-4.488-3.247-6.7-4.912a28.092,28.092,0,0,1-3.9-3.413,1.563,1.563,0,0,1-.577-1.159,3.968,3.968,0,0,0-.145-.7.714.714,0,0,0-.1-.28,5.637,5.637,0,0,0-2.682-1.851,5.231,5.231,0,0,0-4.312.6,1,1,0,0,0-.351.341c-1.485,2.947-2.951,5.895-4.457,8.822-.041.093-.061.165-.1.269.124,0,.247-.011.371,0a5.22,5.22,0,0,1,.867.2.905.905,0,0,1,.639.879c.082.92-.288,1.365-1.217,1.365a.7.7,0,0,1-.289,0h-2.042c-.764,0-.764,0-.867-.755a8.594,8.594,0,0,1,.041-2.617c.331-2.565.64-5.161.97-7.736.082-.713.145-1.437.248-2.171-.1-.011-.207-.052-.289-.052-1.258-.114-2.517-.258-3.776-.383a1.326,1.326,0,0,0-.433.062c-1.238.321-2.476.693-3.756.951-1.527.321-3.074.7-4.642.1a15.1,15.1,0,0,1-4.437,6.578.109.109,0,0,0,.021.083c.949,1.428,1.9,2.875,2.847,4.3a.314.314,0,0,0,.268.093,8.762,8.762,0,0,1,1.279-.041.883.883,0,0,1,.866.806,9.361,9.361,0,0,1,.021,1.324c-.062.011-.082.021-.1.021-1.258,0-2.516.011-3.776-.011a.376.376,0,0,1-.247-.1,36.138,36.138,0,0,1-4.457-4.974,15.415,15.415,0,0,1-.991-1.747,1.662,1.662,0,0,1-.02-.642,13.047,13.047,0,0,0,.392-1.778c.062-1.148.062-2.307.082-3.476.021-.02-.02-.052-.02-.1a2.362,2.362,0,0,0-.268.083c-2.5.9-4.953,1.81-7.449,2.741a.528.528,0,0,0-.268.289c-.619,1.376-1.2,2.782-1.775,4.188a2.348,2.348,0,0,0-.288,1.117,5.892,5.892,0,0,1-.516,2.14c-.166.321-.331.342-.64.166a3.453,3.453,0,0,1-1.775-1.976Z" style="fill-rule:evenodd"/><path d="M325.174,329.436c1.032-1.406,2-2.689,2.951-3.971.062-.1.125-.228.186-.33.186-.331.206-.672-.145-.818a.784.784,0,0,0-.68.258c-.5.631-.907,1.365-1.383,2.038a19.047,19.047,0,0,1-6.417,5.119,37.318,37.318,0,0,1-19,4.406c-.227-.01-.454,0-.723,0v.735c-.041,7.332-.082,14.686-.124,22,0,1.914-.949,2.906-2.723,2.906H291.6a5.158,5.158,0,0,1-.97-.072,1.9,1.9,0,0,1-1.836-2.089,2.128,2.128,0,0,1,1.795-2.337c.227-.041.474-.041.723-.093a1.712,1.712,0,0,0,1.382-1.489,3.088,3.088,0,0,0,.062-.755V337.233a20.061,20.061,0,0,0-2.621-9.814c-.1-.145-.185-.382-.33-.455a.775.775,0,0,0-.64-.052c-.1.052-.144.393-.144.59,0,.155.144.289.247.455a19.161,19.161,0,0,1,2.5,9.5c-.061,5.8-.041,11.594-.041,17.375,0,1.116-.061,1.24-1.135,1.344-2.022.238-3.219,2.275-2.662,4.5a6.1,6.1,0,0,0,.207.724,12.344,12.344,0,0,1-1.651.341c-1.072.062-2.166.041-3.26.02a2.536,2.536,0,0,1-.02-5.067c.351-.02.722,0,1.115,0a1.336,1.336,0,0,0,1.321-1.375c.02-.2,0-.414,0-.621,0-5.8-.021-11.594.02-17.385a5.744,5.744,0,0,0-.825-3.092c-1.135-1.831-2.27-3.63-3.4-5.461A79.721,79.721,0,0,1,271.28,301.1c-.433-2.523-.743-5.057-1.135-7.591a6.944,6.944,0,0,0-.31-1.3c-.95-2.648-1.92-5.275-2.868-7.953a.951.951,0,0,0-1.011-.807,13.109,13.109,0,0,1-6.644-1.717c-3.426-2.016-4.437-5.491-4.334-8.863a1.866,1.866,0,0,1,1.3-1.862,6.889,6.889,0,0,1,1.918-.382c1.073-.041,2.146.062,3.219.062a10.9,10.9,0,0,0,1.918-.1,1.982,1.982,0,0,0,1.651-1.261c1.113-3.083,3.529-4.416,6.376-4.778a15.322,15.322,0,0,1,12.173,3.455,9.121,9.121,0,0,1,3.219,8.056,1.146,1.146,0,0,0,.145.693c6.726,9.794,15.537,16.237,26.927,18.3a38.692,38.692,0,0,0,6.273.486c10.11.051,20.261-.011,30.373.041a11.78,11.78,0,0,1,8.768,3.7c2.27,2.409,3.034,5.45,3.034,8.75,0,6.929-.021,13.889-.041,20.829a10.374,10.374,0,0,0,2.373,7,13.024,13.024,0,0,1,3.012,8.7c-.02,4.84,0,9.67,0,14.5a2.446,2.446,0,0,1-2.538,2.73c-2.022.011-4.065.011-6.046,0a2.534,2.534,0,1,1-.041-5.067,7.989,7.989,0,0,0,.846-.031,1.207,1.207,0,0,0,1.135-1.189c-.061-3.351-.1-6.712-.268-10.052a7.892,7.892,0,0,0-1.568-4.179,5.274,5.274,0,0,0-4.519-2.4,13.824,13.824,0,0,1-5.839-.859,11.407,11.407,0,0,1-5.592-5.274c-.516-.963-.929-2.007-1.362-3-.165-.352-.288-.766-.784-.549-.433.186-.31.549-.186.931,1.2,3.164,2.847,6,5.654,7.891.061.021.144.1.206.124,1.093.321,1.217,1.148,1.2,2.235-.041,6.133,0,12.275.02,18.419,0,2.059-.886,3-2.847,3-1.589,0-3.2.011-4.787,0a2.444,2.444,0,0,1-2.539-2.481,2.481,2.481,0,0,1,2.517-2.586c.268-.011.517,0,.784-.031a1.183,1.183,0,0,0,1.156-1.117,49.937,49.937,0,0,0-.165-7.663,11.754,11.754,0,0,0-6.726-9.164,23.717,23.717,0,0,1-9.409-8.056c-.227-.352-.434-.734-.66-1.076C325.215,329.509,325.174,329.416,325.174,329.436ZM275.51,285.13a6.852,6.852,0,0,0,3.8-1.107,22.361,22.361,0,0,0,5.407-4.716c.247-.289.494-.6.124-.951s-.619-.021-.887.258c-.907.941-1.836,1.934-2.806,2.813a10.144,10.144,0,0,1-4.354,2.554,2.835,2.835,0,0,1-3.26-1.261,5.639,5.639,0,0,1-.97-3.734,11.7,11.7,0,0,1,1.63-5.233c1.011-1.706,2.146-3.309,3.239-4.944.186-.289.351-.558.082-.848-.31-.31-.557-.186-.805.093a23.057,23.057,0,0,0-4.889,9.1,7.03,7.03,0,0,0,1.341,6.7A3.262,3.262,0,0,0,275.51,285.13Zm-5.881-14.293" style="fill-rule:evenodd"/><path d="M383.918,279.732c.371,1.437.805,2.854,1.052,4.291a17.234,17.234,0,0,1-9.244,19.671c-1.527.817-3.115,1.457-4.663,2.327a17.273,17.273,0,0,0-7.552,8c-.041.073-.1.134-.247.352v-.838c-.02-2.472.082-4.922-.124-7.374a11.792,11.792,0,0,0-7.284-10.445,5.13,5.13,0,0,1-.557-.289c1.465-.1,2.786-.186,4.106-.321a52.1,52.1,0,0,0,13.556-2.8,20,20,0,0,0,7.614-4.624,9.95,9.95,0,0,0,3.137-7.746c0-.052.02-.114.02-.165C383.795,279.763,383.877,279.742,383.918,279.732Z" style="fill-rule:evenodd"/><path d="M13.845,117.476c.877,2.978,1.836,5.946,2.631,8.966.733,2.855,2.693,4.489,5.633,5.43,6.366,2.079,12.711,1.81,19.148.3A129.443,129.443,0,0,1,76.148,128.6c6,.218,12.05-.393,18.064-.651,1.043-.031,2.074-.2,3.085-.248,5.489-.228,10.038,1.1,13.268,5.647,5.427,7.653,11.142,15.12,16.8,22.618,4.375,5.864,8.687,11.738,13.278,17.447,7.17,8.852,12.679,18.377,15.856,29.019,3.178,10.59,9.079,19.9,16.487,28.452,8.253,9.525,16.527,19.06,24.616,28.7a114.86,114.86,0,0,1,7.387,10.342,31.855,31.855,0,0,1,4.869,12.535c.681,4.478,1.589,8.956,4.87,12.637a1.639,1.639,0,0,1,.268,1.107c.02,4.4-.062,8.791.082,13.2a104.722,104.722,0,0,1-2,23.776c-1.093,5.605-4.065,9.711-9.8,12.463a48.958,48.958,0,0,0-10.337,7.188c-3.343,2.886-2.745,5.668,1.505,7.218a31.151,31.151,0,0,0,23.585-.6c3.384-1.458,4.993-4.5,6.54-7.446.764-1.469,1.465-2.958,2.311-4.385.743-1.3,1.815-1.489,3.053-.455a.974.974,0,0,0,.145.156c1.341.558,2.661,1.1,3.982,1.665.517-1.406,1.506-2.865,1.321-4.219-.494-4.271-1.691-8.511-2.146-12.8-.97-9.349-2.063-18.709-2.332-28.089-.145-5.544,1.2-11.119,1.857-16.692.247-2.007.887-4.044.68-6-.494-5.4.393-10.6,1.218-15.9a208.6,208.6,0,0,0-.041-63.49,2.279,2.279,0,0,1,.061-1.221,74.755,74.755,0,0,1,12.01,40.065c3.2-.361,6.21-.806,9.264-1.044,13.205-1.065,25.792,1.541,38.172,5.46,7.015,2.213,14.01,4.83,21.232,6.2a118.378,118.378,0,0,0,46.982-.062c4.519-.951,9.2-1.261,13.783-1.882a13.35,13.35,0,0,1,10.09,2.669,65.446,65.446,0,0,1,7.387,6.381c4.292,4.395,8.748,8.429,15.124,10.176,2.332.652,3.158,2.43,3.385,4.54.267,2.824.557,5.668.97,8.461a11.2,11.2,0,0,0,.969,3.123c.805,1.841,2.064,3.279,4.561,3.227a4.571,4.571,0,0,0,4.6-3.455,39.071,39.071,0,0,0,1.321-6.153c.723-5.523,2.167-6.527,8.254-5.482,1.816.321,3.652.4,5.447.755a2.756,2.756,0,0,1,1.712,1.209c.887,1.924,1.528,3.941,2.353,5.9a27.907,27.907,0,0,0,2.5,4.964c2.146,3.186,6.376,3.3,8.419.021a16.923,16.923,0,0,0,2.414-7.064c.5-5.15,1.424-10.073,5.086-14.19,1.259-1.4,2.662-2.678,4.21-4.219-15.754-14.707-28.175-31.2-31.559-52.227.288.517.66,1.075.97,1.644,2.063,3.578,4.25,7.105,6.19,10.757,6.789,12.555,17.466,22.038,29.1,30.684a78.732,78.732,0,0,1,19,20.395,83.711,83.711,0,0,1,3.838,7.715,14.275,14.275,0,0,0,1.9,3.609c3.9,4.075,5.3,8.977,6.107,14.107a149.375,149.375,0,0,1,1.238,36.4c-.433,5.026-2.847,8.78-7.9,11.19a18.946,18.946,0,0,0-5.407,4.375c-2.7,2.906-5.116,6.081-7.716,9.121-.929,1.065-.723,1.975.578,2.4a38.957,38.957,0,0,0,7.985,2.14,56.624,56.624,0,0,0,18.611-1.634c2.889-.671,4.87-2.151,5.654-4.633a52.917,52.917,0,0,0,2.393-10.445c.268-2.648,1.651-3.991,4-5.191.433.641.8,1.3,1.278,1.871.5.549,1.424,1.5,1.589,1.417.887-.465,2.147-1.127,2.332-1.892.867-4.054,2.29-8.046.578-12.328-4.683-11.728-5.735-24.117-7.2-36.4-.041-.465-.062-.93-.145-1.406a40,40,0,0,1,.268-12.038,35.667,35.667,0,0,0-5.736-26.248c-2.806-4.3-4.332-9.421-5.818-14.355-2.374-7.932-4.251-16-6.252-24.056a4.191,4.191,0,0,1,.392-2.678c10.255-20.591,15.681-42.288,18.178-64.69.494-4.416.763-8.8,1.135-13.2.227-.061.474-.093.68-.134.846,3.63,2.064,7.229,2.5,10.922a190.616,190.616,0,0,1,1.589,20.8c.124,14.479-.372,28.947-.372,43.406.021,10.818.124,21.625.764,32.412.227,4.24,1.712,8.481,3.2,12.556a63.421,63.421,0,0,1,4.189,17.964,2.523,2.523,0,0,0,.578,1.541,36.624,36.624,0,0,0,2.167-3.1,78.513,78.513,0,0,0,8.727-24.377c.1-.558.331-1.137.475-1.706v-6.484c-2.786-9.639-5.716-19.257-8.336-28.958a90.046,90.046,0,0,1-2.579-28.379c.7-14.189,1.382-28.378,1.691-42.568a68.772,68.772,0,0,0-1.548-15.482c-4.168-20.395-20.283-33.694-42.773-35.577-5.447-.445-10.936-.672-16.383-.651-23,.176-46,.3-69.03.775-10.007.208-19.993,1.5-30,1.81-24.7.735-49.417-.372-74.1-1.665-11.905-.621-23.872-1.117-35.737-2.213a319.7,319.7,0,0,0-49.046-.962,75.662,75.662,0,0,1-15.392-.238c-12.937-1.851-25.255-6-37.471-10.207-8.954-3.062-17.971-6.133-26.586-9.867-6.283-2.72-12.019-6.535-18.126-9.938,4.767-6.412,7.159-13.1,6.293-20.56-.846-7.415-4.323-13.756-9.573-19.361a4.749,4.749,0,0,0,.041,1.582c.36,3.537,1.113,7.126.979,10.674a21.243,21.243,0,0,1-10,17.7,3.332,3.332,0,0,1-3.982.2,29.646,29.646,0,0,0-12.432-3.95c-1.5-.093-2.063-.538-2.434-1.9C86.083,29.7,79.542,24.076,70.866,20.228c-.175-.092-.424-.01-.753-.01,1.176,1.5,2.332,2.885,3.332,4.375,3.353,4.881,5.282,10.1,4.1,15.978-.154.818-.351,1.944-.98,2.389-3.992,2.834-6.293,6.785-8.418,10.787-1.084,2.038-2.3,2.357-4.55,1.706-4.828-1.406-9.7-2.834-14.66-3.837A21.613,21.613,0,0,0,28.9,57.192c5.159,8.273,13.329,11.387,23.11,11.914A18.575,18.575,0,0,1,48.87,79.5c-7.7,11.7-16.908,22.133-29.557,29.724-2.187,1.282-3.652,3.568-5.468,5.408Z" style="fill-rule:evenodd"/><path d="M0,267.9a.161.161,0,0,0,.061.031,4.154,4.154,0,0,0,3.4,2.617A3.887,3.887,0,0,1,5.818,272.2a2.341,2.341,0,0,0,1.889.931,8.594,8.594,0,0,0,2.568-.33c2.889-.869,5.757-1.81,8.625-2.741a3.567,3.567,0,0,0,.805-.3c1.517-.94,2.961-.393,4.364.321a1.947,1.947,0,0,1,.877.962,7.961,7.961,0,0,1,.7,2.452,101.4,101.4,0,0,0,7.8,34.388,51.861,51.861,0,0,0,6.871,12.193,12.08,12.08,0,0,0,2.124,2.11,26.071,26.071,0,0,0,6.345,4.231c2.931,1.24,4.035,3.733,4.375,6.743.258,2.264.371,4.54.578,6.815.268,3.134.587,6.247.805,9.36a3.362,3.362,0,0,1-.5,1.862c-.6.993-1.352,1.882-2.022,2.823a2.081,2.081,0,0,0-.413.755c-.4,1.665-1.249,5.047-1.63,6.836,2.517,0,5.148.176,7.562.176.166-.527.558-3,.764-3.506A3.824,3.824,0,0,1,60.2,356.1a2.515,2.515,0,0,0,1.4-2.482c.082-6.267.207-12.513.351-18.781.021-.92.124-1.82.2-2.886,1.6.8,3.044,1.489,3.776,3.237a44.984,44.984,0,0,1,2.8,9.308,47.781,47.781,0,0,1,.774,8.4,3.745,3.745,0,0,1-.506,1.572c-.65,1.551-1.33,3.082-2.011,4.612-.154.383-.113.642.279.838a8.281,8.281,0,0,1,.97.724,5.421,5.421,0,0,0,5.952.341,1.023,1.023,0,0,0,.32-.6c.1-1.065.175-2.131.217-3.206a.7.7,0,0,1,.5-.755c1.568-.672,1.527-.683,1.537-2.4a59.408,59.408,0,0,0-1.609-12.876c-.248-1.231-.424-2.461-.619-3.682a6.942,6.942,0,0,1,1.557-5.7c.97-1.189,2.022-2.327,3.024-3.485a4.265,4.265,0,0,1,4.3-1.55,92.47,92.47,0,0,0,22.285,1.055,104.416,104.416,0,0,0,18.137-2.689A31.657,31.657,0,0,0,127.4,324a6.356,6.356,0,0,1,8.429,3.993,16.341,16.341,0,0,1,.98,6.185c-.011,2.3-.217,4.571-.166,6.847a32.109,32.109,0,0,1-.815,7.363c-.547,2.482-.846,5.067-1.3,7.57a1,1,0,0,1-.433.6,4.423,4.423,0,0,0-1.568,3.143.591.591,0,0,0,.268.352c1.176.579,2.29,1.282,3.693,1.035a4.084,4.084,0,0,1,1.31.2c.186-.652.4-1.417.6-2.152.072-.31.113-.63.175-.94.453-1.976.453-2.027,2.4-2.213.66-.052.764-.527.887-1.013.537-2.3,1.135-4.561,1.589-6.877.763-3.941,1.423-7.9,2.124-11.853.125-.723.268-1.437.392-2.151.145-1.044.929-1.428,1.734-.827,1.362.992,2.723,2.016,4.085,3.04a4.322,4.322,0,0,1,1.692,3.154c.5,5.192.929,10.373,1.506,15.534.1,1.055-.062,1.573-.929,2.068a5.039,5.039,0,0,0-1.9,2.462c2.31,1.665,4.973,1.934,7.758,2.275-.083-1.448-.186-2.782-.268-4.106.082-.072.1-.113.124-.113,1.527-.383,1.609-.455,1.609-2.068,0-5-.02-10.012.021-15.006a22.792,22.792,0,0,0-1.2-7.819,4.375,4.375,0,0,1,.578-4.127c1.444-2.306,3.012-4.612,3.59-7.384a20.988,20.988,0,0,0,.5-4.282c.145-5.627.206-11.273.331-16.909a12.893,12.893,0,0,1,1.176-4.726c.784-1.964,1.548-3.961,2.167-5.968,1.423-4.809.619-9.432-1.156-13.941a44.372,44.372,0,0,0-6.5-11.087,28.871,28.871,0,0,0-10.214-7.787,44.864,44.864,0,0,0-7.263-2.947,17.021,17.021,0,0,0-5.18-.455c-9.872.269-19.735.569-29.6.951-6.593.228-13.154.621-19.726.963-5.375.258-10.771.6-16.146.806-2.58.083-5.159-.041-7.748-.093a7.112,7.112,0,0,1-4.643-1.871c-1.279-1.117-2.589-2.213-3.765-3.444a72.645,72.645,0,0,0-15.393-11.718c-.907-.548-1.805-1.158-2.734-1.675a.775.775,0,0,1-.412-1.075c.31-.818.587-1.634.918-2.441a3.963,3.963,0,0,0,.381-2.927c-.3-.91-.929-1.365-1.784-1.064a13.527,13.527,0,0,0-2.476,1.324c-.381.207-.639.641-1,.92a10.545,10.545,0,0,0-3.57,5.595c-.041.1-.082.238-.134.362-.021.02-.052.052-.031.031-4.447-.134-8.233,1.593-11.679,4.21a57.331,57.331,0,0,0-11.266,11.9c-1.754,2.379-3.507,4.778-5.3,7.166a10.709,10.709,0,0,0-1.836,4.541c-.072.413-.217.806-.288,1.22Z" style="fill-rule:evenodd"/><path d="M740.239,269.545c-1.217.373-2.353.714-3.507,1.087a3.7,3.7,0,0,1-3.2-.331c-.6-.352-1.258-.7-2.022-1.1.723-.207,1.321-.33,1.878-.476.784-.217,1.568-.434,2.373-.642,1.279-.341,1.815-1.251,2.62-2.151-.227.073-.288.073-.33.124-2.022,1.634-4.849,1.759-7.408,2.4a.639.639,0,0,1-.31.011c-1.176-.249-2.414-1.417-2.414-2.389.082-2.648.165-5.285.351-7.932a20.87,20.87,0,0,0-.7-7.044,2.655,2.655,0,0,1,.206-2.306c.557-.952,1.238-1.851,1.877-2.782.31-.455.681-.931.991-1.386a18.386,18.386,0,0,1,.97-1.593,2.945,2.945,0,0,1,2.517-1.252c2.641.021,5.282,0,7.882.176a4.438,4.438,0,0,0,3.549-.962,30.246,30.246,0,0,1,6.087-3.8,8.47,8.47,0,0,1,7.181-.289,34.182,34.182,0,0,1,6.685,3.5c.082.041.1.1.247.227-1.485-.279-2.868-.537-4.25-.786-1.506-.217-3.013-.424-4.519-.662a3.864,3.864,0,0,0-3.157.828,22.043,22.043,0,0,0-3.8,4.074,5.669,5.669,0,0,0,.537.258,8.52,8.52,0,0,1,3.756,3.144,6.466,6.466,0,0,0,1.506,1.551c1.65,1.458,3.384,2.823,4.973,4.312a13.68,13.68,0,0,1,3.177,4.447c1.383,3.217-.784,6.113-4.952,6.588a3.563,3.563,0,0,1-1.877-.28,16.342,16.342,0,0,1-2.662-1.592c-1.073-.776-2.063-1.6-3.054-2.441a1.393,1.393,0,0,1-.474-.9,15.624,15.624,0,0,1,.041-3.392,7.063,7.063,0,0,0-2.579-6.639c-.723-.672-1.383-1.365-2.167-2,.124.145.227.31.331.455.929,1.333,1.877,2.637,2.765,3.94a3.879,3.879,0,0,1,.66,2.4c0,1.437,0,2.9.02,4.354a5.015,5.015,0,0,0,2.559,4.364,30.627,30.627,0,0,0,3.364,1.8,10.6,10.6,0,0,0,5.385.724,1.381,1.381,0,0,1,1.053.331c2.352,2.223,4.683,4.447,7.077,6.628a1.892,1.892,0,0,0,1.011.435,72.082,72.082,0,0,1,9.8,1.613,9.881,9.881,0,0,1,2.435,1.055,53.273,53.273,0,0,0,9.058,4.406,4.846,4.846,0,0,0,1.9.258c3.817-.155,7.655-.341,11.493-.517,3.858-.207,7.7-.455,11.554-.558a119.087,119.087,0,0,1,13.021.838c3.527.31,7.077.589,10.615.838a11.8,11.8,0,0,0,6.562-1.2c1.136-.59,1.279-.807.929-1.872a11.853,11.853,0,0,0-3.487-4.695c-.784-.672-1.65-1.3-2.475-1.944a1.035,1.035,0,0,1-.392-.445c.97.31,1.981.569,2.867.941a59.861,59.861,0,0,1,5.509,2.451,5.912,5.912,0,0,1,3.529,5.264,1.321,1.321,0,0,0,.062.279c1.176-.155,1.568.125,1.155,1.035a23.175,23.175,0,0,1-2.022,3.33,34.551,34.551,0,0,1-2.269,2.627c.784,1.013,1.609,2.027,2.353,3.062A19.079,19.079,0,0,1,854,291.543a6.73,6.73,0,0,1,.763,3.206c-.186,4.975-.268,9.96-.474,14.934a30.127,30.127,0,0,1-.5,4.065,8.475,8.475,0,0,0,.619,4.467c.95,2.679,1.9,5.358,3.074,7.964a9.115,9.115,0,0,1,.558,6.246c-.207.828-.351,1.666-.578,2.493-.723,2.565-.351,5.161-.186,7.746.041,1.282.124,2.586.186,3.878a2.365,2.365,0,0,1-.6,1.686,9.239,9.239,0,0,1-1.505,1.944c-2.415,1.779-3.24,5.378-3.673,7.767-.723,3.869.145-.7.1-.548-.846,2.854-6.252,3.164-8.5,3.164.1-.2,2.126-3.516,2.208-3.682,1.321-2.709,2.6-5.439,3.92-8.139a7.165,7.165,0,0,0,.845-3.837c-.247-3.4-.536-6.775-.845-10.177-.1-.827-.289-1.675-.413-2.492a5.03,5.03,0,0,0-1.568-2.968c-1.465-1.458-2.951-2.906-4.581-4.24a15.629,15.629,0,0,1-3.735-4.375c-1.6-2.917-3.126-5.843-4.674-8.739-.124-.2-.207-.393-.372-.693a5.838,5.838,0,0,0-.288.59c-.805,1.541-1.61,3.061-2.414,4.6a3.324,3.324,0,0,1-1.528,1.376,30.212,30.212,0,0,1-12.463,3.63,54.579,54.579,0,0,1-7.8-.124c-5.86-.517-11.741-1.2-17.643-1.82a11.442,11.442,0,0,1-3.837-1.231c-.764-.382-1.528-.766-2.311-1.1a2.337,2.337,0,0,0-2.951.445,6.607,6.607,0,0,0-1.362,1.665c-.784,1.448-1.444,2.937-2.1,4.457a3.951,3.951,0,0,0,.061,2.834c.537,1.634,1.073,3.206,1.692,4.829a4.888,4.888,0,0,1-.288,4.147,38.318,38.318,0,0,0-1.837,4.034c-.825,2.255-.371,4.509.124,6.784.166.621.268,1.272.475,1.892a5.505,5.505,0,0,1-.475,4.437,3.477,3.477,0,0,0-.144,3.154,4.557,4.557,0,0,1,.206.662,1.18,1.18,0,0,1-.619,1.356,30.494,30.494,0,0,0-3.033,2.689,1.6,1.6,0,0,1-1.258.476c-2.105-.011-4.23,0-6.335,0h-.8c.1-.269.165-.476.247-.662q2.477-7.229,4.973-14.427a7.257,7.257,0,0,0-.33-5.533,1.745,1.745,0,0,0-.125-.352,11.316,11.316,0,0,1-1.444-6.981,37.748,37.748,0,0,0-1.258-12.318,6.715,6.715,0,0,0-.433-2.037,9.3,9.3,0,0,0-5.86-4.6,16.129,16.129,0,0,1-6.768-3.557,6.085,6.085,0,0,1-1.383-2.048c-1.052-2.678-1.94-5.378-3.033-8.046a12.2,12.2,0,0,1-.805-4.912c.062-1.4.062-2.8.041-4.21a5.487,5.487,0,0,0-.887-2.937c-1.031-1.655-2.042-3.32-3.177-4.954-1.734-2.565-2.641-5.388-3.92-8.108C742.055,273.413,741.168,271.479,740.239,269.545Z" style="fill-rule:evenodd"/><path d="M821.659,322.176c2.022-.631,3.9-1.282,5.84-1.82a6.639,6.639,0,0,0,3.879-2.627c.763-1.1,1.547-2.171,2.373-3.278.124.165.226.269.31.4,1.671,2.472,3.321,4.933,4.982,7.384.145.228.331.4,0,.662a6.4,6.4,0,0,0-2.713,6.454c.145,1.1.372,2.172.516,3.279a.8.8,0,0,1-.247.671c-.887.672-1.857,1.282-2.745,1.944a5.5,5.5,0,0,0-1.589,1.428c-.886,1.541-1.63,3.164-2.414,4.748a37.409,37.409,0,0,0-1.754,3.837,10.731,10.731,0,0,0-.5,2.782,17.709,17.709,0,0,0,.125,2.357c.041.549-.145.92-.867,1.065-1.113.258-2.228.579-3.363.848-.619.134-.887.4-.929.868,0,.4,0,.818-.021,1.22a1.2,1.2,0,0,1-.887,1.117A2.194,2.194,0,0,0,820.215,357c-.124.382-.949,4.013-1.382,4-1.92,0-5.84.011-7.758,0-.062,0,2.455-3.578,2.29-3.62.124-.228.247-.434.351-.631,4.25-7.3,8.542-14.614,12.772-21.925a3.866,3.866,0,0,0,.536-1.437c.166-1.9.268-3.837.331-5.709a3.2,3.2,0,0,0-1.4-2.71c-1.176-.827-2.394-1.623-3.611-2.42A5.96,5.96,0,0,0,821.659,322.176Z" style="fill-rule:evenodd"/><path d="M758.211,314.233c3.074.33,5.86.91,7.614,3.123a12.544,12.544,0,0,1,2.93,7.674c.041,2.224-.02,4.406-.124,6.619a16,16,0,0,0,1.485,7.529c.331.7.558,1.449.929,2.131a3.389,3.389,0,0,1,.31,2.368c-.557,2.389-1.135,4.809-1.691,7.23,0,.041-.041.061-.166.258-.082-.89-.144-1.645-.206-2.389-.227-2.016-.433-4.023-.7-6.04a16.563,16.563,0,0,0-2.146-5.564,14.994,14.994,0,0,1-2.084-7.27,14.512,14.512,0,0,0-.145-1.625,6.174,6.174,0,0,0-1.4-3.412,17.3,17.3,0,0,1-3.879-8.16C758.768,315.909,758.48,315.112,758.211,314.233Z" style="fill-rule:evenodd"/><path d="M728.086,245.541c-.061.156-.145.331-.186.477a32.9,32.9,0,0,1-1.464,3.164,4.354,4.354,0,0,0-.268,3.33c.268.869.392,1.779.743,2.617a10.381,10.381,0,0,1,.31,5.605c0,.093-.041.176-.041.28-.166,1.22-1.342,2.006-2.909,1.871a12.84,12.84,0,0,1-2.682-.32,2.6,2.6,0,0,1-2.084-3.248,3,3,0,0,1,.331-.734,15.231,15.231,0,0,0,2.455-5.564,12.634,12.634,0,0,1,3.9-5.905c.619-.527,1.177-1.076,1.754-1.645Z" style="fill-rule:evenodd"/><path d="M737.226,240.98a5.741,5.741,0,0,0-4.126.2c-.5.166-.722-.031-.722-.413a4.131,4.131,0,0,1,1.155-2.938,1.67,1.67,0,0,1,2.641.1A5.893,5.893,0,0,1,737.226,240.98Z" style="fill-rule:evenodd"/><path d="M556.3,330.77c-.351-.786-.743-1.562-.1-2.348-.31-.352-.639-.641-.907-1a2.22,2.22,0,0,1-.082-2.637.472.472,0,0,0,.041-.621c-.6-1.076-.331-1.738.845-2.161a7.7,7.7,0,0,1,.1-1.2,1.817,1.817,0,0,1,1.754-1.551,7.765,7.765,0,0,1,3.507.859c2.7,1.158,5.407,2.275,8.068,3.444a10.8,10.8,0,0,0,6.562.434,25,25,0,0,0,13.66-8.077,2.725,2.725,0,0,0,.412-.662,39.808,39.808,0,0,1,6.273-9.3,18,18,0,0,1,1.341-1.3.54.54,0,0,0,.207-.662c-.268-.8.1-1.293.97-1.406a1.461,1.461,0,0,0,.392-.207c.227-.134.433-.414.639-.394a7.638,7.638,0,0,0,1.6-.1,3.25,3.25,0,0,1,1.692.32c.433.208.907.362,1.321.57.453.217.763.723,1.155,1.107.082.092.1.237.207.279.68.362.784.59.68,1.3a1.545,1.545,0,0,0,.186.8c.351.723.784,1.385,1.073,2.11a1.213,1.213,0,0,1-.125,1.065c-.268.393-.68.124-1.031-.052a4.653,4.653,0,0,0-.558-.238c0,1.8-.516,2.472-2.166,3.062a.754.754,0,0,0-.413.517c-.392,1.623-.846,3.248-1.135,4.892a54.163,54.163,0,0,0-.6,8.181,19.631,19.631,0,0,1-2.466,9.38,67.385,67.385,0,0,1-7.82,11.532c-1.2,1.313-2.62,2.441-3.9,3.682a.863.863,0,0,0-.268.63,12.417,12.417,0,0,0,2.042,4.2,3.009,3.009,0,0,0,2.167,1c1.259.125,2.539.1,3.8.156a1.73,1.73,0,0,1,.866.134,1.049,1.049,0,0,1,.474.807.941.941,0,0,1-.66.671c-1.3.156-2.579.217-3.878.29a5.4,5.4,0,0,1-.805-.062,5.593,5.593,0,0,0,.557.486,1.36,1.36,0,0,1,.433,1.892.768.768,0,0,1-1.4.2,7.1,7.1,0,0,0-2.661-2.089,3.844,3.844,0,0,0-2.559-.527,4.38,4.38,0,0,1-1.444-.165.771.771,0,0,1-.6-.879c.021-.445.372-.559.723-.621,1.548-.321,1.609-.352,1.052-1.82a31.308,31.308,0,0,0-1.961-4.126,1.943,1.943,0,0,0-2.31-1.087c-.949.258-1.9.517-2.847.838a.753.753,0,0,0-.413.527,11.569,11.569,0,0,0,.206,4.457,2.81,2.81,0,0,0,.97,1.386,12.007,12.007,0,0,0,4.148,2.213,2.03,2.03,0,0,1,.619.352.8.8,0,0,1,.165,1,.764.764,0,0,1-.97.362c-1.217-.434-2.434-.869-3.652-1.324-.186-.052-.371-.176-.66-.3.145.289.227.486.31.671a1.507,1.507,0,0,1-.474,1.966.8.8,0,0,1-1.279-.538,7.946,7.946,0,0,0-2.538-3.93c-.124-.145-.372-.186-.537-.269-.619-.31-1.258-.548-1.836-.9a.811.811,0,0,1-.289-1.117c.207-.425.619-.352.97-.258.041.01.062.02.124.031,1.279.321,1.465.2,1.506-1.148a29.16,29.16,0,0,0-.02-3.557c-.021-.445-.392-.869-.517-1.3a2.913,2.913,0,0,0-1.63-1.706,15.987,15.987,0,0,1-6.5-6.692,2.666,2.666,0,0,0-.619-.693c-.288-.248-.619-.455-.929-.682a11.84,11.84,0,0,0-3.466-1.914,13.686,13.686,0,0,1-2.682-1.386,2.012,2.012,0,0,1-1.032-1.5c-.02-.144-.185-.258-.288-.352-.31-.207-.619-.352-.887-.569C555.125,332.352,555.146,331.536,556.3,330.77Z" style="fill-rule:evenodd"/><path d="M725.631,310.386c-1.011.714-1.093,1.841-1.321,2.927a10.638,10.638,0,0,1-.619,2.037,7.711,7.711,0,0,0-.764,3.372c-.02,1.862.082,3.724.186,5.605.145,2.172.331,4.334.516,6.5a.594.594,0,0,1-.412.693,8.26,8.26,0,0,0-3.611,3.164c-.805,1.221-1.506,2.493-2.249,3.754a1.083,1.083,0,0,0-.021.445,3.977,3.977,0,0,0,2.931,2.845c.557.165,1.135.248,1.568.352a15.992,15.992,0,0,0,.413,2.513,19.269,19.269,0,0,0,1.217,2.616c.5.993,1.135,1.955,1.589,2.99a7.686,7.686,0,0,1-1.4,8.18,1.549,1.549,0,0,1-1.424.486,6.7,6.7,0,0,0-1.981.052,1.51,1.51,0,0,0-1.176,1.862c0,.083.165.217.247.217,1.816-.083,3.652-.155,5.468-.31a3.264,3.264,0,0,0,2.641-2.006c.31-.672.474-1.438.743-2.152a29.4,29.4,0,0,1,1.156-2.709c.66,1.292,1.918,1.458,3.074,1.675.557.113.743-.062.866-.631a3.777,3.777,0,0,0,.042-.5c.02-.144.061-.279.082-.486.392.062.743.125,1.113.186,1.671.248,3.364.434,5.014.744a9.16,9.16,0,0,1,2.249.776,4.245,4.245,0,0,1,1.032.786,4.709,4.709,0,0,1-2.6.91c-1.362.208-2.723.331-4.065.569a2.8,2.8,0,0,0-1.3.61,1.047,1.047,0,0,0,.247,1.9,2.955,2.955,0,0,0,1.775.186c.474-.072.97-.165,1.444-.207a3.009,3.009,0,0,1,1.836.217,5.26,5.26,0,0,0,2.807.527c2.29-.041,4.56-.113,6.871-.2.763-.031,1.527-.083,2.31-.113.723-.041.949-.217,1.073-.962.041-.238.041-.507.061-.714a15.675,15.675,0,0,0,1.961.59,5.874,5.874,0,0,0,2.29-.032,5.117,5.117,0,0,0,2.332-1.489.7.7,0,0,0,.061-.992.458.458,0,0,1,0-.642.327.327,0,0,0,0-.382,8.671,8.671,0,0,0-.8-.683c-.393-.258-.991-.413-1.177-.775-.144-.29.145-.838.268-1.262a12.622,12.622,0,0,0-.537-9.835,13.768,13.768,0,0,0-6.746-6.194,20.443,20.443,0,0,0-10.152-1.758,31.978,31.978,0,0,0-5.819,1.137,6.923,6.923,0,0,1-3.837-.041.465.465,0,0,1-.392-.569,5,5,0,0,0-1.136-3.444c.6-.683,1.2-1.345,1.775-2.027a23.589,23.589,0,0,0,4.91-8.708,19.113,19.113,0,0,0,.558-8.294,8.512,8.512,0,0,0-.331-1.79c-.412-1.231-.825-1.324-1.94-.827a4.3,4.3,0,0,0-1.774,1.82,26.793,26.793,0,0,0-2.765,6.877c-.681,2.461-1.4,4.944-2.126,7.394a21.622,21.622,0,0,1-.867,2c-.082.114-.165.249-.226.352a1.1,1.1,0,0,1-.145-.041c.082-.651.165-1.3.268-1.954.412-2.472.887-4.944,1.258-7.415a16.587,16.587,0,0,0-.1-6.216A6.444,6.444,0,0,0,726,310.386Z" style="fill-rule:evenodd"/><path d="M733.017,355.395a5.79,5.79,0,0,1-3.529-1.293c-.31,1.013-.763,2.5-1.011,3.537-.351,1.458-.639,2.917-.887,4.395a3.571,3.571,0,0,0,.125,1.314.834.834,0,0,0,1.341.465,4.579,4.579,0,0,0,1.052-1.137,26.96,26.96,0,0,0,2.29-5.109C732.625,356.987,732.811,356,733.017,355.395Z" style="fill-rule:evenodd"/><path d="M925.147,361.641c-5.406-.2-11.08,1.024-16.507,1.024-.6,0-2.992-.2-4.085-.2,2.888-4.365,3.033-4.531,5.551-8.491a6.44,6.44,0,0,0,.991-2.865,255.6,255.6,0,0,0,.02-46.84c-1.032-10.5-2.786-20.849-6.685-30.674a82.993,82.993,0,0,0-11.287-19.351c-11.987-15.885-24.182-31.574-36.315-47.325-3.445-4.479-6.974-8.874-10.337-13.414-2.022-2.71-3.8-5.616-5.757-8.584-1.156.92-2.414,1.966-3.724,2.917-13.164,9.825-27.711,16.619-43.021,21.749-28.329,9.463-57.4,12.39-86.95,11.024-7.387-.33-14.773-1.1-22.14-1.778-1.341-.134-1.918.217-2.476,1.541-1.588,3.754-3.4,7.4-5.055,11.118a7.032,7.032,0,0,0-.433,2.461c-.68,13.776-1.2,27.552-2.084,41.317-.206,3.236-1.588,6.381-2.393,9.586a7.626,7.626,0,0,0-.186,1.531c-.371,13.548-.764,27.075-1.093,40.623a15.376,15.376,0,0,1-6.975,13.1,7.934,7.934,0,0,0-3.2,3.868A11.109,11.109,0,0,1,660,346.076a3.731,3.731,0,0,0,.041,4.551c1.816,2.9,1.342,6.02-.351,8.894a2.094,2.094,0,0,1-1.465.89c-7.139.041-14.3.021-21.458,0-.082,0-.186-.093-.351-.186.041-.155,0-.361.082-.517,4.291-6.329,8.4-12.834,12.937-18.926a50.874,50.874,0,0,0,8.129-17.5,7.017,7.017,0,0,0,.1-1.748c-.145-28.6-.723-57.181-3.033-85.694-.866-10.414-2.394-20.766-3.632-31.14a2.592,2.592,0,0,0-1.547-2.389c-2.848-1.4-4.519-4.023-5.84-6.908a45.211,45.211,0,0,1-3.735-16.486c-.31-5.274-.33-10.6-.33-15.885,0-11.9.041-23.807-1.961-35.6-2.559-15.254-10.008-29.754-20.345-39.31-5.488,4.87-12.173,4.85-18.828,5.1a25.436,25.436,0,0,0-6.046.786c-6.912,1.9-13.8,3.971-19.849,8.233a6.916,6.916,0,0,1-.66.372c-3.3,1.79-4.518,1.573-6.953-.992a45.679,45.679,0,0,1-4.683,1.344,4.369,4.369,0,0,1-5.035-2.513,35.932,35.932,0,0,1-1.9-5.263,32.043,32.043,0,0,1-1.341-5.264,4.774,4.774,0,0,1,.453-2.989,108.9,108.9,0,0,1,6.583-10.653,165.413,165.413,0,0,1,22.759-24.551c2.29-2.079,3.219-7.105,1.877-9.95-.557-1.159-1.135-2.337-1.671-3.537-1.217-2.513-1.238-2.533.907-4.384a45.569,45.569,0,0,1,16.156-8.75,2.288,2.288,0,0,0,1.93-2.689c-.268-7.343-.186-14.748-2.4-22.422A40.474,40.474,0,0,1,610.1,17.85V9.825c.95.776,1.528,1.18,2.043,1.686a18.43,18.43,0,0,1,5.427,11.107,2.684,2.684,0,0,0,2.083,2.472c10.008,3.734,20.1,7.313,29.939,11.46A111.675,111.675,0,0,1,685.023,60.79c8.46,8.418,17.085,16.63,26.123,24.294,11.988,10.166,25.586,17.157,40.875,19.825a43.281,43.281,0,0,0,9.678.259c12.215-.527,24.305-1.955,36.006-5.947a51.545,51.545,0,0,0,9.615-4.2c9.306-5.46,19.354-7.8,29.857-8.191,20.809-.766,40.349,4.364,58.568,14.852,1.569.91,2.807,2.937,3.693,4.705,4.581,9.3,7.573,19.184,10.172,29.237a48.869,48.869,0,0,1,.826,21.573c-1.218,6.267-2.745,12.493-4.5,18.606-1.692,6.092-3.714,12.069-5.9,17.974-3.322,8.925-2.723,17.675.557,26.4a73.989,73.989,0,0,0,11.183,19.826,21.343,21.343,0,0,1,4.663,16.04,49.75,49.75,0,0,0,1.3,17.5c3.486,13.9,7.242,27.737,10.749,41.637a63.118,63.118,0,0,1,1.734,10.963c.268,3.837-.784,5-4.209,6.309a1.791,1.791,0,0,0-.909,1.179c-.97,5.543-1.857,11.087-2.7,16.64a2.369,2.369,0,0,0,.433,1.706c2.971,2.658,3.26,5.989,2.31,9.659"/><path d="M902.677,105.406c1.691,1.293,3.321,2.452,4.808,3.765,8.459,7.477,14.009,17.105,18.137,27.676,5.942,15.057,9,30.84,10.171,47.046,1.053,14.158-.226,28.243-.949,42.35a104.077,104.077,0,0,0,2.641,30.736,82.724,82.724,0,0,1-2.5,48.587c-.331.972-.764,1.9-1.4,3.424-.95-1.2-1.9-1.976-2.29-2.99a93.064,93.064,0,0,1-3.8-11.055c-2.167-8.574-4.21-17.22-6-25.9a38.356,38.356,0,0,1-.02-14.635c1.072-5.977-.887-11.262-4.169-15.988-2.124-3.062-4.518-5.916-6.746-8.895a16.637,16.637,0,0,1-3.55-11.593,99.422,99.422,0,0,0,.041-13.134,85.27,85.27,0,0,1,3.013-26.341c1.877-7.126,3.384-14.345,5.014-21.532,1.506-6.63.413-13.146-1.115-19.578A162.574,162.574,0,0,0,903.5,108.209c-.31-.7-.639-1.4-.949-2.12C902.512,105.985,902.595,105.831,902.677,105.406Z"/><path d="M684.9,218.838c9.367.879,19.148,1.106,28.372,2.006-.268,3.34-.537,10.963-.826,14.448-1.4,17.416-2.951,34.79-4.105,52.207-.31,4.653.6,9.38,1.072,14.054.723,7.022,1.754,14.024,2.249,21.067a46.387,46.387,0,0,1-.743,10.259,7.873,7.873,0,0,1-4.085,5.595,3.009,3.009,0,0,0-.97,1.82c-.784,3.062-1.176,6.3-2.332,9.2-1.279,3.217-6.912,10.87-10.523,10.746-4.746-.176-10.337,0-15.537,0,.537-.859,4.767-7.394,5.137-7.953,3.529-4.788,7.1-9.6,10.586-14.447a11.178,11.178,0,0,0,1.65-3.444c2.931-11.149,4.354-22.411,2.332-33.932s-4.312-22.981-5.963-34.533C689.11,251.467,686.716,233.42,684.9,218.838Z"/><path d="M878.743,347.721c.124.228.144.3.165.33,5.3,3.237,5.984,6.95,2.249,11.966a2.275,2.275,0,0,1-1.506.92c-6.953.062-13.907.041-20.86.011-.1,0-.186-.113-.433-.3.351-.642.722-1.313,1.093-1.966q9.719-16.491,19.416-33.032a10.386,10.386,0,0,0,1.382-4.344c.66-13.289,1.342-26.62,1.754-39.931a40.573,40.573,0,0,0-3.878-18.336c-6.211-13.776-11.824-27.8-17.663-41.74-.145-.331,1.609-7.074,1.279-7.974.825.755,3.033,3.993,3.4,4.385,14.2,15.193,22.945,27.955,33.7,45.929.413.683.041,9.5-.041,10.353-1.259,14.189-2.6,28.358-3.92,42.546-.331,3.724-.454,7.447-.949,11.139a17.151,17.151,0,0,1-1.61,5.161,4.262,4.262,0,0,1-4.663,2.534c-.454-.084-1.217.041-1.4.372C883.673,339.726,881.2,343.77,878.743,347.721Z"/></svg>